<?xml version="1.0" encoding="UTF-8" standalone="no"?>
<!-- Created with Inkscape (http://www.inkscape.org/) -->

<svg
   width="1280"
   height="580"
   viewBox="0 0 338.66665 153.45833"
   version="1.1"
   id="svg5"
   sodipodi:docname="logo.svg"
   inkscape:version="1.3.2 (091e20ef0f, 2023-11-25, custom)"
   xml:space="preserve"
   inkscape:export-filename="logo.png"
   inkscape:export-xdpi="96"
   inkscape:export-ydpi="96"
   xmlns:inkscape="http://www.inkscape.org/namespaces/inkscape"
   xmlns:sodipodi="http://sodipodi.sourceforge.net/DTD/sodipodi-0.dtd"
   xmlns="http://www.w3.org/2000/svg"
   xmlns:svg="http://www.w3.org/2000/svg"><sodipodi:namedview
     id="namedview7"
     pagecolor="#505050"
     bordercolor="#ffffff"
     borderopacity="1"
     inkscape:showpageshadow="0"
     inkscape:pageopacity="0"
     inkscape:pagecheckerboard="1"
     inkscape:deskcolor="#505050"
     inkscape:document-units="mm"
     showgrid="false"
     inkscape:zoom="0.30668944"
     inkscape:cx="1390.6576"
     inkscape:cy="565.71885"
     inkscape:window-width="1900"
     inkscape:window-height="1028"
     inkscape:window-x="10"
     inkscape:window-y="42"
     inkscape:window-maximized="1"
     inkscape:current-layer="layer1"
     showguides="true" /><defs
     id="defs2"><inkscape:path-effect
       effect="bspline"
       id="path-effect16"
       is_visible="true"
       lpeversion="1.3"
       weight="33.333333"
       steps="2"
       helper_size="0"
       apply_no_weight="true"
       apply_with_weight="true"
       only_selected="false"
       uniform="false" /><inkscape:path-effect
       effect="bspline"
       id="path-effect2"
       is_visible="true"
       lpeversion="1.3"
       weight="33.333333"
       steps="2"
       helper_size="0"
       apply_no_weight="true"
       apply_with_weight="true"
       only_selected="false"
       uniform="false" /><inkscape:path-effect
       effect="lattice2"
       gridpoint0="-33.3889,-13.8995"
       gridpoint1="89.2889,-13.8995"
       gridpoint2="-33.3889,84.3032"
       gridpoint3="89.2889,84.3032"
       gridpoint4="-2.71945,-13.8995"
       gridpoint5="58.61945,-13.8995"
       gridpoint6="-2.71945,84.3032"
       gridpoint7="58.61945,84.3032"
       gridpoint8x9="27.95,-13.8995"
       gridpoint10x11="27.95,84.3032"
       gridpoint12="-33.3889,10.651175"
       gridpoint13="89.2889,10.651175"
       gridpoint14="-33.3889,59.752525"
       gridpoint15="89.2889,59.752525"
       gridpoint16="-2.71945,10.651175"
       gridpoint17="58.61945,10.651175"
       gridpoint18="-4.2482083,41.977352"
       gridpoint19="57.917798,51.315721"
       gridpoint20x21="32.831863,29.78414"
       gridpoint22x23="33.280929,63.735314"
       gridpoint24x26="-33.3889,35.20185"
       gridpoint25x27="89.2889,35.20185"
       gridpoint28x30="-2.71945,35.20185"
       gridpoint29x31="58.61945,35.20185"
       gridpoint32x33x34x35="27.95,35.20185"
       id="path-effect3743"
       is_visible="true"
       lpeversion="1"
       horizontal_mirror="false"
       vertical_mirror="false"
       perimetral="false"
       live_update="true" /><inkscape:path-effect
       effect="bspline"
       id="path-effect3636"
       is_visible="true"
       lpeversion="1"
       weight="33.333333"
       steps="2"
       helper_size="0"
       apply_no_weight="true"
       apply_with_weight="true"
       only_selected="false"
       uniform="false" /><inkscape:path-effect
       effect="bspline"
       id="path-effect3630"
       is_visible="true"
       lpeversion="1"
       weight="33.333333"
       steps="2"
       helper_size="0"
       apply_no_weight="true"
       apply_with_weight="true"
       only_selected="false"
       uniform="false" /><filter
       inkscape:label="Neon"
       inkscape:menu="Bevels"
       inkscape:menu-tooltip="Neon light effect"
       x="-0.36630121"
       y="-0.15116736"
       width="1.7326024"
       height="1.3023347"
       style="color-interpolation-filters:sRGB;"
       id="filter95"><feGaussianBlur
         stdDeviation="1"
         result="result1"
         id="feGaussianBlur90" /><feComposite
         in="result1"
         in2="result1"
         result="result4"
         operator="in"
         id="feComposite90" /><feGaussianBlur
         stdDeviation="7"
         result="result6"
         in="result4"
         id="feGaussianBlur91" /><feComposite
         operator="over"
         in="result6"
         in2="result4"
         result="result8"
         id="feComposite91" /><feComposite
         operator="in"
         result="fbSourceGraphic"
         in="result6"
         in2="result8"
         id="feComposite92" /><feSpecularLighting
         specularExponent="45"
         specularConstant="2"
         surfaceScale="2.5"
         lighting-color="rgb(255,255,255)"
         result="result1"
         in="fbSourceGraphic"
         id="feSpecularLighting92"><fePointLight
           z="20000"
           y="-10000"
           x="-5000"
           id="fePointLight92" /></feSpecularLighting><feComposite
         operator="in"
         result="result2"
         in="result1"
         in2="fbSourceGraphic"
         id="feComposite93" /><feComposite
         k3="1.5"
         k2="1.2"
         operator="arithmetic"
         result="result4"
         in="fbSourceGraphic"
         in2="result2"
         id="feComposite94" /><feComposite
         operator="over"
         in="result9"
         in2="result4"
         result="result9"
         id="feComposite95" /><feBlend
         mode="screen"
         in2="result9"
         id="feBlend95" /></filter><clipPath
       clipPathUnits="userSpaceOnUse"
       id="clipPath95"><path
         id="path95"
         style="font-weight:900;font-size:76.8264px;line-height:41.0443px;font-family:'Inter Tight';-inkscape-font-specification:'Inter Tight Heavy';text-align:start;letter-spacing:-5.48762px;word-spacing:1.3719px;text-anchor:start;fill:#ffffff;fill-opacity:1;stroke:none;stroke-width:0.499999;stroke-linecap:square;stroke-linejoin:round;stroke-miterlimit:2;stroke-dasharray:none;stroke-opacity:1;paint-order:stroke fill markers"
         d="m 1647.3844,234.6838 c -0.8436,-0.11663 -1.6988,0.0636 -2.4453,0.42272 v 12.27832 c -0.082,-0.21434 -0.1816,-0.41813 -0.2713,-0.62787 -0.012,0.21861 -0.094,0.50653 -0.3137,0.96428 -0.1277,0.26653 -0.7862,0.73438 -1.5265,1.08417 -1.3974,0.66026 -1.7369,1.06349 -1.7369,2.06344 0,0.49525 -0.091,0.63562 -0.4103,0.63562 -0.3381,0 -4.1037,-0.55589 -6.2487,-0.92242 l -0.5405,-0.0925 -0.1018,3.72277 h 11.1497 v 6.97735 h -4.8855 c -0.2529,0.62401 -0.56,1.37541 -1.2444,2.92799 -0.9125,2.07043 -1.6593,3.85739 -1.6593,3.97081 0,0.33306 0.8524,0.77274 2.0221,1.04283 1.4671,0.33883 1.456,0.79155 -0.044,1.78749 -1.2611,0.83727 -1.7516,1.46403 -2.0015,2.5585 -0.2081,0.91154 0.1184,1.98379 0.7783,3.02049 0.9767,-0.58077 1.8995,-1.22875 2.7311,-1.99058 1.9666,-1.80276 3.3881,-3.95741 4.3031,-6.43888 v 10.60245 h 8.7752 c 1.1426,-0.8277 2.4596,-2.54046 2.7321,-3.55275 0.438,-1.62643 -0.2227,-3.02835 -1.9761,-4.19251 -1.5398,-1.02272 -1.5345,-1.46687 0.023,-1.81539 0.6409,-0.14343 1.3567,-0.4158 1.5906,-0.60513 l 0.4253,-0.34417 -0.5348,-1.32808 c -0.2941,-0.73059 -1.0563,-2.48773 -1.694,-3.90468 -0.6377,-1.41695 -1.1596,-2.63824 -1.1596,-2.71404 0,-0.11499 5.3015,1.00512 6.4859,1.37046 0.3476,0.10721 0.3599,-0.18625 0.2305,-5.4498 -0.075,-3.05989 -0.1472,-5.57857 -0.1602,-5.59707 -0.013,-0.0185 -1.4231,0.1879 -3.1342,0.45888 -4.0723,0.64487 -3.9449,0.6492 -4.0049,-0.13746 -0.078,-1.02928 -0.3946,-1.4031 -1.7343,-2.05207 -0.692,-0.3352 -1.3839,-0.7754 -1.5379,-0.97823 -0.3418,-0.45035 -0.3822,-1.50947 -0.058,-1.50947 1.2933,0 3.4007,1.49358 4.133,2.92902 0.2257,0.4424 0.4438,0.8046 0.4858,0.8046 0.2068,0 3.2416,-5.62864 3.1311,-5.8074 -0.071,-0.11424 -0.3254,-0.20773 -0.5659,-0.20773 -0.2405,0 -1.4584,-0.47433 -2.7063,-1.0542 -1.4666,-0.68158 -2.6637,-1.09484 -3.3869,-1.16944 -1.1784,-0.12163 -1.3257,-0.25014 -0.7927,-0.69247 0.7364,-0.61117 1.1737,-1.87803 1.0827,-3.13676 -0.104,-1.43758 -0.5496,-2.13637 -1.8144,-2.84272 -0.4314,-0.24094 -0.905,-0.39137 -1.3896,-0.45837 z m 6.3299,43.98698 c -1.6226,0.55338 -3.074,1.2661 -4.3486,2.14354 -1.8346,1.24968 -3.1633,2.79632 -4.0168,4.62194 2.1375,-0.13935 4.6988,-0.1453 6.7339,0.0269 l 1.7627,0.14883 -1.1405,0.14056 c -1.1773,0.14446 -5.3127,0.13551 -7.5086,0.0341 -0.3656,0.85893 -0.641,1.77091 -0.8015,2.75022 -0.1891,-0.42071 -0.3915,-0.83193 -0.6077,-1.233 -1.607,-3.04884 -3.8592,-5.41904 -6.7396,-7.12773 -5.6156,1.41068 -10.5852,2.96225 -13.7671,4.3527 l -1.9436,0.84956 0.1199,1.01235 c 0.051,0.42963 0.3035,1.31955 0.5979,2.30063 0.9685,-0.57429 2.1726,-0.86196 3.6137,-0.86196 3.8514,0 6.0144,2.05067 6.4896,6.15208 h -8.3272 c 0.8619,2.37833 1.9641,5.23492 3.1564,8.25272 h 19.388 v -3.45095 c 0,-0.32661 -0.014,-0.64285 -0.024,-0.96273 2.0578,2.68865 5.5807,4.48971 10.5921,5.38882 l 7.4275,1.35082 c 0.4425,0.0795 0.7803,0.18853 1.1617,0.28525 1.5725,-3.91482 3.0811,-7.71939 4.1594,-10.69547 l -6.5216,-1.14411 c -1.5756,-0.2751 -2.6383,-0.68747 -3.1884,-1.23766 -0.5252,-0.55018 -0.7881,-1.13799 -0.7881,-1.76319 0,-0.8753 0.4505,-1.53784 1.3509,-1.988 0.9002,-0.47516 2.0006,-0.71313 3.301,-0.71313 1.4756,0 2.763,0.37525 3.8634,1.12551 1.1254,0.72525 1.7386,1.72593 1.8386,3.00137 h 1.1007 c 0.6554,-1.91733 1.185,-3.56667 1.4051,-4.53306 l 0.3235,-1.42058 -1.5286,-0.7059 c -3.8095,-1.76015 -10.1902,-3.72693 -17.3845,-5.35833 l -0.5896,-0.13385 z m -5.8741,-42.72142 c 1.2031,0 1.7563,1.24151 0.924,2.07378 -0.8444,0.84439 -2.0743,0.27511 -2.0743,-0.96015 0,-0.79051 0.3342,-1.11363 1.1503,-1.11363 z m -6.0942,6.27352 c -0.5255,0.18538 -1.1024,0.41699 -1.8309,0.75551 -1.2542,0.58287 -2.4771,1.05937 -2.7177,1.05937 -0.2406,0 -0.4948,0.0939 -0.5658,0.20825 -0.1079,0.17446 2.9367,5.80688 3.1388,5.80688 0.037,0 0.2523,-0.3622 0.478,-0.8046 0.5631,-1.10377 2.1019,-2.40612 3.2091,-2.71611 0.5751,-0.16102 0.8975,-0.17971 1.077,-0.0832 -0.2683,-0.59421 -0.5577,-1.1758 -0.8977,-1.72703 -0.5522,-0.90369 -1.1874,-1.73255 -1.8908,-2.49907 z m -8.0791,18.9668 c 0,0.0247 -0.01,0.37457 -0.01,0.37724 0.021,0.0208 1.1339,-0.23313 1.8232,-0.37724 z m 14.8658,11.47113 c 1.1475,-0.001 2.7202,0.36281 2.7202,0.62942 0,0.0825 -0.4146,0.25428 -0.9214,0.38189 -1.4635,0.36852 -4.471,0.10429 -4.471,-0.39274 0,-0.28595 1.4314,-0.61657 2.6722,-0.61857 z m -16.0368,33.54989 c -0.4502,1.1754 -1.2256,2.08811 -2.3259,2.73834 -0.1277,0.0725 -0.2689,0.12607 -0.4026,0.19017 l 1.5007,3.64939 -0.7788,0.3483 c -0.9412,0.42139 -1.4283,1.28043 -1.4283,2.51819 0,1.14189 0.6941,2.23934 1.6045,2.5368 0.3612,0.11804 0.714,0.27253 0.785,0.34313 0.071,0.0707 0.063,1.34079 -0.018,2.82256 l -0.1462,2.69441 -2.2014,0.0832 c -3.0499,0.11551 -4.2294,0.78769 -4.4954,2.5616 -0.087,0.58218 0.013,1.15996 0.2548,1.67122 1.3472,0.049 2.5395,0.40836 3.5626,1.10587 1.1253,0.72525 1.738,1.72543 1.8381,3.00085 h 13.8048 c -0.175,-4.4265 -2.0132,-7.89025 -5.5144,-10.39109 -1.4641,-1.06389 -3.1596,-1.90086 -5.0808,-2.51665 2.449,-0.64293 4.5975,-1.62573 6.4311,-2.96519 2.0633,-1.50717 3.6286,-3.3275 4.7243,-5.44256 0.6983,1.42064 1.6578,2.70532 2.8505,3.86901 2.5172,-0.12109 6.1314,-0.13823 7.4631,0.0651 0.9556,0.14594 0.9713,0.15923 0.3829,0.31936 -0.9266,0.25212 -4.4756,0.30318 -7.1959,0.21807 0.3658,0.31885 0.735,0.63611 1.1425,0.93328 3.2113,2.30325 7.5164,3.58214 12.9047,3.84576 -0.02,-0.82899 -0.057,-1.84732 -0.011,-1.92082 0.068,-0.11032 0.3035,-0.2005 0.523,-0.2005 0.2197,0 0.6953,-0.2645 1.0568,-0.58756 0.552,-0.49318 0.6724,-0.77001 0.7524,-1.72858 0.1214,-1.46392 -0.3126,-2.35746 -1.3757,-2.83342 l -0.7746,-0.34675 1.0341,-2.50992 c -1.234,-0.11593 -2.3032,-0.44211 -3.1931,-0.9958 -1.1254,-0.72526 -1.8007,-1.75033 -2.0258,-3.07579 h -11.9181 z m -11.6856,26.70122 c -0.4604,0.70292 -0.7472,1.5325 -0.8252,2.50475 -0.2686,3.34659 1.7272,5.53749 5.5877,6.13296 l 1.5932,0.24547 0.7307,1.90892 c 0.3963,1.0354 0.7505,2.21743 1.1147,3.36466 0.5609,0.45992 0.8583,0.99417 0.8583,1.61178 0,0.25284 -0.053,0.48367 -0.1323,0.70332 0.9529,3.39624 1.7697,7.19589 2.4407,11.31404 1.097,-0.26055 2.1648,-0.56156 3.1683,-0.95137 3.0511,-1.2004 5.4521,-2.88802 7.2027,-5.06377 1.7504,-2.20075 2.6261,-4.80211 2.6261,-7.80314 0,-6.05206 -4.2518,-9.828 -12.7547,-11.32851 l -8.553,-1.50068 c -1.474,-0.25736 -2.4806,-0.64026 -3.0572,-1.13843 z m 33.3572,13.51752 c -2.2008,0 -4.039,0.72559 -5.5144,2.17609 -1.4756,1.4505 -2.2133,3.2632 -2.2133,5.43895 0,2.17573 0.7377,3.98896 2.2133,5.43946 1.4754,1.4505 3.3136,2.17609 5.5144,2.17609 2.2007,0 4.0388,-0.72559 5.5144,-2.17609 1.4754,-1.4505 2.2133,-3.26373 2.2133,-5.43946 0,-2.17575 -0.7379,-3.98845 -2.2133,-5.43895 -1.4756,-1.4505 -3.3137,-2.17609 -5.5144,-2.17609 z" /></clipPath><filter
       style="color-interpolation-filters:sRGB;"
       inkscape:label="Drop Shadow"
       id="filter105"
       x="-0.086467918"
       y="-0.051842154"
       width="1.1729358"
       height="1.1036843"><feFlood
         result="flood"
         in="SourceGraphic"
         flood-opacity="0.376471"
         flood-color="rgb(37,37,37)"
         id="feFlood104" /><feGaussianBlur
         result="blur"
         in="SourceGraphic"
         stdDeviation="3.000000"
         id="feGaussianBlur104" /><feOffset
         result="offset"
         in="blur"
         dx="0.000000"
         dy="0.000000"
         id="feOffset104" /><feComposite
         result="comp1"
         operator="in"
         in="flood"
         in2="offset"
         id="feComposite104" /><feComposite
         result="comp2"
         operator="over"
         in="SourceGraphic"
         in2="comp1"
         id="feComposite105" /></filter></defs><g
     inkscape:label="Layer 1"
     inkscape:groupmode="layer"
     id="layer1"
     transform="translate(-1476.2114,-215.48911)"><path
       style="fill:#000000"
       d="m 2064.8296,670.14724 c -4.3854,-0.64523 -6.389,-3.05956 -6.389,-7.69869 0,-3.39802 1.0445,-4.62226 4.5975,-5.38826 l 0.7611,-0.16408 -0.526,-0.58187 c -1.7303,-1.91409 -1.4481,-6.23801 0.6002,-9.19361 0.8803,-1.27036 2.4581,-2.32045 4.0572,-2.70031 l 1.2446,-0.29564 -0.8482,-1.60449 c -0.9172,-1.73522 -1.6871,-4.92113 -1.6798,-6.95114 0.01,-1.93248 0.6928,-4.75969 1.486,-6.12662 1.1874,-2.04606 3.9468,-4.50302 7.2894,-6.49029 3.3836,-2.01167 4.2926,-2.76021 5.5219,-4.54686 2.1263,-3.09055 3.427,-7.3093 3.4792,-11.2852 0.029,-2.2424 0.105,-2.64147 0.5852,-3.09123 0.6885,-0.64478 1.813,-1.08085 2.7872,-1.08085 0.9022,0 0.9929,-0.13527 3.1046,-4.63021 7.145,-15.20869 11.5421,-31.43813 13.3693,-49.34479 0.4518,-4.42827 0.4515,-20.79287 -5e-4,-25.00313 -1.3576,-12.64396 -3.7145,-23.5928 -6.8325,-31.7388 l -0.9322,-2.43542 -2.0326,-0.31354 c -4.9247,-0.75964 -7.4709,-3.55426 -7.1282,-7.82348 0.2913,-3.62922 2.7024,-5.81637 7.0474,-6.39275 0.7455,-0.0989 1.3539,-0.25376 1.3521,-0.34416 0,-0.0904 -0.3996,-0.42092 -0.8839,-0.7345 -1.2128,-0.78513 -1.8569,-2.21821 -1.6417,-3.65269 0.3393,-2.26297 1.8436,-3.12014 5.7343,-3.2675 l 2.8085,-0.10637 0.1868,-3.43688 c 0.1027,-1.89028 0.1131,-3.51062 0.023,-3.60076 -0.09,-0.0901 -0.5409,-0.28708 -1.0017,-0.43768 -1.1613,-0.37946 -2.0469,-1.77977 -2.0469,-3.23648 0,-1.579 0.6215,-2.67463 1.8222,-3.2122 l 0.9934,-0.44476 -2.6099,-6.34747 c -5.4266,-13.19758 -9.594,-24.69437 -9.9059,-27.3275 l -0.153,-1.29177 2.4792,-1.08339 c 4.7935,-2.0947 12.6943,-4.49358 21.4763,-6.52073 l 0.7408,-0.171 -1.3176,-1.04144 c -2.3906,-1.88965 -3.679,-4.42439 -3.2357,-6.36568 0.3188,-1.39622 0.9442,-2.19585 2.5529,-3.26396 1.9135,-1.27052 1.9277,-1.84794 0.056,-2.28019 -1.4921,-0.34455 -2.5796,-0.90535 -2.5796,-1.33022 0,-0.1447 0.9525,-2.4241 2.1166,-5.06534 1.1642,-2.64125 2.1167,-4.88292 2.1167,-4.9815 0,-0.0986 -1.9332,0.27025 -4.2959,0.81962 -2.3628,0.54938 -4.337,0.95779 -4.3872,0.90759 -0.05,-0.0502 -0.01,-3.25019 0.1004,-7.11108 l 0.1917,-7.01981 0.6898,0.11787 c 2.7364,0.46758 7.5402,1.17668 7.9715,1.17668 0.4077,0 0.5234,-0.17936 0.5234,-0.81115 0,-1.27561 0.4329,-1.78984 2.2156,-2.63212 0.9444,-0.44623 1.7846,-1.04272 1.9476,-1.38273 0.8158,-1.70137 0.5888,-2.00255 -1.144,-1.5174 -1.4124,0.39544 -3.3756,2.05714 -4.0939,3.4652 -0.288,0.56437 -0.5624,1.02612 -0.6099,1.02612 -0.2578,0 -4.1419,-7.18511 -4.0043,-7.40767 0.09,-0.14589 0.415,-0.26525 0.7219,-0.26525 0.3069,0 1.8672,-0.60837 3.4672,-1.35193 2.0595,-0.95705 3.359,-1.39271 4.449,-1.49155 l 1.5398,-0.13962 -0.7613,-0.86701 c -1.5041,-1.71305 -1.7628,-4.50455 -0.5725,-6.17624 1.3831,-1.94229 4.4445,-2.5511 6.6459,-1.32163 1.6134,0.90108 2.1823,1.79222 2.315,3.62614 0.1162,1.60575 -0.4417,3.22195 -1.3811,4.00162 -0.6799,0.56427 -0.4926,0.72788 1.0107,0.88305 0.9226,0.0952 2.4502,0.62273 4.3212,1.49222 1.5919,0.73972 3.1454,1.34495 3.4523,1.34495 0.3068,0 0.6316,0.11919 0.7216,0.26487 0.141,0.22805 -3.7301,7.40805 -3.9939,7.40805 -0.053,0 -0.3321,-0.46175 -0.62,-1.02612 -0.9342,-1.83117 -3.6228,-3.73638 -5.2727,-3.73638 -0.4138,0 -0.3621,1.35114 0.074,1.92566 0.1964,0.25875 1.0792,0.82032 1.962,1.24793 1.7091,0.82789 2.112,1.30474 2.2121,2.6178 0.076,1.00355 -0.085,0.99801 5.1095,0.17535 2.1828,-0.34569 3.9821,-0.60924 3.9983,-0.58566 0.016,0.0236 0.1081,3.23662 0.2041,7.1401 0.1651,6.71467 0.1492,7.08943 -0.2942,6.95266 -1.5109,-0.46606 -8.2738,-1.89551 -8.2738,-1.74881 0,0.0967 0.6655,1.65478 1.479,3.46238 0.8135,1.8076 1.786,4.04909 2.1612,4.98109 l 0.6821,1.69454 -0.5423,0.43915 c -0.2983,0.24153 -1.2113,0.58886 -2.0289,0.77183 -1.9866,0.44459 -1.9937,1.01095 -0.029,2.31563 2.2368,1.48511 3.08,3.274 2.5213,5.34882 -0.3477,1.29138 -2.028,3.47604 -3.4856,4.53193 l -1.0713,0.77606 0.7519,0.17051 c 9.1777,2.08116 17.3177,4.59002 22.1775,6.83542 l 1.9497,0.90082 -0.4127,1.81246 c -0.8945,3.92794 -4.9151,14.84921 -10.1011,27.43735 l -2.3052,5.59557 0.9881,0.44241 c 1.3562,0.60718 1.9095,1.74692 1.7546,3.61443 -0.1014,1.22284 -0.2552,1.57653 -0.9594,2.20568 -0.4612,0.41212 -1.0678,0.74931 -1.348,0.74931 -0.2801,0 -0.5805,0.11511 -0.6674,0.2558 -0.087,0.14069 -0.077,1.79498 0.022,3.6762 l 0.1806,3.4204 2.8062,0.10629 c 3.9002,0.14773 5.3925,1.00365 5.7353,3.28952 0.2125,1.4171 -0.4641,2.89304 -1.6832,3.67158 -0.4558,0.29104 -0.8333,0.60312 -0.8389,0.69351 -0.01,0.0904 0.5998,0.24527 1.3453,0.34416 4.3318,0.57463 6.7581,2.76643 7.0436,6.36288 0.3412,4.29832 -2.2084,7.1093 -7.1275,7.858 l -2.0357,0.30984 -1.0379,2.79914 c -6.2788,16.93222 -8.6527,39.92556 -6.2441,60.4783 1.8403,15.70217 6.464,31.73531 13.2193,45.83906 1.8784,3.92172 1.9557,4.0349 2.7539,4.0349 1.021,0 2.3975,0.55925 2.9164,1.18493 0.2756,0.33235 0.4103,1.23036 0.4524,3.01755 0.074,3.12207 0.7816,5.99958 2.1945,8.91852 1.4888,3.07594 3.0362,4.63977 6.7827,6.85504 3.6838,2.17816 6.4939,4.77651 7.5911,7.01916 1.6903,3.45487 1.577,8.45807 -0.276,12.18512 l -0.9975,2.00637 1.2813,0.30163 c 3.8119,0.89731 6.2909,5.17903 5.6136,9.69561 -0.1025,0.68342 -0.4651,1.53979 -0.8414,1.98703 l -0.6614,0.78597 0.6774,0.14132 c 0.3725,0.0777 1.0048,0.21013 1.405,0.29422 1.0644,0.22369 2.4492,1.3745 2.8723,2.38703 0.5563,1.33151 0.467,4.47481 -0.1817,6.3959 -0.6569,1.94516 -1.7282,2.99968 -3.7452,3.68668 -1.3207,0.44982 -4.3101,0.47622 -57.7491,0.5099 -30.9959,0.0195 -56.9935,-0.0582 -57.7724,-0.17284 z m 77.087,-7.339 c 0.6738,-0.21451 0.3941,-0.2871 -1.8521,-0.48052 -5.2591,-0.45288 -20.6616,-0.18117 -20.1254,0.35501 0.3895,0.38951 4.4446,0.54018 12.4525,0.46269 4.8022,-0.0465 9.0884,-0.19821 9.525,-0.33718 z m -2.5135,-11.84901 c 2.9831,-0.0845 6.0192,-0.24166 6.7468,-0.34925 l 1.3229,-0.1956 -1.0583,-0.1889 c -1.7503,-0.31242 -10.2588,-0.70023 -15.4781,-0.70548 -5.2503,-0.005 -14.0263,0.41885 -15.585,0.75321 -0.9101,0.19524 -0.8767,0.21348 0.7683,0.41957 1.976,0.24756 13.2486,0.59202 16.0073,0.48914 1.0187,-0.038 4.2929,-0.1382 7.2761,-0.22269 z m -1.1032,-18.09752 c 2.4658,-0.44606 4.4319,-1.09996 4.0041,-1.33175 -0.7768,-0.42098 -4.1701,-1.03878 -7.3989,-1.34709 -5.0077,-0.47819 -11.8238,0.0549 -14.9489,1.16912 l -1.0584,0.37734 0.784,0.30864 c 1.0266,0.40416 2.8882,0.79747 5.1025,1.07801 2.1744,0.27548 11.5636,0.0988 13.5156,-0.25427 z m 0.3094,-23.80488 1.7198,-0.17942 -1.5875,-0.23299 c -2.0858,-0.30612 -13.8423,-0.30474 -15.875,0.002 l -1.5875,0.23944 1.5875,0.16172 c 2.1845,0.22252 13.6343,0.22936 15.7427,0.009 z m -7.8404,-127.55758 c 2.3089,-0.14729 4.3855,-0.3727 4.6146,-0.50091 0.688,-0.38502 -3.2843,-0.68462 -9.0773,-0.68462 -8.6752,0 -11.8164,0.70709 -5.1415,1.15733 4.7646,0.32138 4.9976,0.32206 9.6042,0.0282 z m 2.5487,-11.34061 1.1907,-0.20291 -1.323,-0.24496 c -1.8375,-0.34025 -13.324,-0.28165 -14.1552,0.0722 -0.6029,0.25669 -0.5326,0.29611 0.7938,0.44539 0.8003,0.0901 1.8719,0.21303 2.3812,0.27322 1.325,0.1566 9.6975,-0.1018 11.1125,-0.34296 z m -0.9146,-14.01907 c 0.7506,-0.20427 0.7308,-0.22077 -0.4883,-0.40694 -2.7019,-0.41259 -13.2392,-0.15934 -12.7729,0.30698 0.5332,0.53326 11.3687,0.61493 13.2612,0.1 z m -3.3187,-37.83725 1.4552,-0.17886 -2.2489,-0.19026 c -2.8793,-0.24358 -6.6654,-0.2426 -9.525,0.002 -2.057,0.17629 -2.1474,0.20664 -1.0584,0.35555 1.6311,0.22304 9.5896,0.2308 11.3771,0.0111 z m -3.0276,-15.41063 c 0.6465,-0.1628 1.1755,-0.38208 1.1755,-0.48729 0,-0.34012 -2.0065,-0.80426 -3.4703,-0.80275 -1.5829,0.002 -3.4088,0.42435 -3.4088,0.78914 0,0.63406 3.8367,0.971 5.7036,0.5009 z m -1.9995,-45.47693 c 1.0617,-1.06171 0.356,-2.64583 -1.1787,-2.64583 -1.0411,0 -1.4671,0.41271 -1.4671,1.42114 0,1.57582 1.5686,2.3019 2.6458,1.22469 z"
       id="path2" /><rect
       style="fill:#ffffff;stroke:none;stroke-width:10;stroke-linecap:square;stroke-linejoin:round;stroke-miterlimit:2;paint-order:stroke fill markers;fill-opacity:1"
       id="rect1"
       width="338.66666"
       height="153.45833"
       x="1476.2114"
       y="215.48911"
       ry="0.79437995" /><text
       xml:space="preserve"
       style="font-weight:900;font-size:76.8264px;line-height:41.0443px;font-family:'Inter Tight';-inkscape-font-specification:'Inter Tight Heavy';text-align:end;letter-spacing:-5.4876px;word-spacing:1.3719px;text-anchor:end;display:inline;fill:#000000;fill-opacity:1;stroke:none;stroke-width:41.4811;stroke-linecap:square;stroke-linejoin:round;stroke-miterlimit:2;paint-order:stroke fill markers;filter:url(#filter105)"
       x="1602.8605"
       y="278.67093"
       id="text16"><tspan
         sodipodi:role="line"
         id="tspan14"
         style="line-height:41.0443px;text-align:start;letter-spacing:-5.48762px;text-anchor:start;fill:#000000;fill-opacity:1;stroke-width:41.4811"
         x="0"
         y="0">ch</tspan><tspan
         sodipodi:role="line"
         style="line-height:41.0443px;text-align:start;letter-spacing:-5.48762px;text-anchor:start;fill:#000000;fill-opacity:1;stroke-width:41.4811"
         x="0"
         y="0"
         id="tspan15">es</tspan><tspan
         sodipodi:role="line"
         style="line-height:41.0443px;text-align:start;letter-spacing:-5.48762px;text-anchor:start;fill:#000000;fill-opacity:1;stroke-width:41.4811"
         x="0"
         y="0"
         id="tspan16">s.</tspan></text><text
       xml:space="preserve"
       style="font-weight:900;font-size:76.8264px;line-height:41.0443px;font-family:'Inter Tight';-inkscape-font-specification:'Inter Tight Heavy';text-align:end;letter-spacing:-5.4876px;word-spacing:1.3719px;text-anchor:end;fill:#000000;fill-opacity:1;stroke:none;stroke-width:41.4811;stroke-linecap:square;stroke-linejoin:round;stroke-miterlimit:2;paint-order:stroke fill markers"
       x="1535.532"
       y="96.071304"
       id="text7"><tspan
         sodipodi:role="line"
         id="tspan5"
         style="line-height:41.0443px;text-align:start;letter-spacing:-5.48762px;text-anchor:start;fill:#000000;fill-opacity:1;stroke-width:41.4811"
         x="1535.532"
         y="96.071304">ch</tspan><tspan
         sodipodi:role="line"
         style="line-height:41.0443px;text-align:start;letter-spacing:-5.48762px;text-anchor:start;fill:#000000;fill-opacity:1;stroke-width:41.4811"
         x="1535.532"
         y="137.1156"
         id="tspan6">es</tspan><tspan
         sodipodi:role="line"
         style="line-height:41.0443px;text-align:start;letter-spacing:-5.48762px;text-anchor:start;fill:#000000;fill-opacity:1;stroke-width:41.4811"
         x="1535.532"
         y="178.15991"
         id="tspan7">s.</tspan></text><path
       id="path90"
       style="font-weight:900;font-size:76.8264px;line-height:41.0443px;font-family:'Inter Tight';-inkscape-font-specification:'Inter Tight Heavy';text-align:start;letter-spacing:-5.48762px;word-spacing:1.3719px;text-anchor:start;display:inline;fill:#ffffff;fill-opacity:1;stroke:none;stroke-width:0.5;stroke-linecap:square;stroke-linejoin:round;stroke-miterlimit:2;stroke-dasharray:none;stroke-opacity:1;paint-order:stroke fill markers;filter:url(#filter95);opacity:1"
       d="m 1647.3844,234.6838 c -0.8436,-0.11663 -1.6988,0.0636 -2.4453,0.42272 v 12.27832 c -0.082,-0.21434 -0.1816,-0.41813 -0.2713,-0.62787 -0.012,0.21861 -0.094,0.50653 -0.3137,0.96428 -0.1277,0.26653 -0.7862,0.73438 -1.5265,1.08417 -1.3974,0.66026 -1.7369,1.06349 -1.7369,2.06344 0,0.49525 -0.091,0.63562 -0.4103,0.63562 -0.3381,0 -4.1037,-0.55589 -6.2487,-0.92242 l -0.5405,-0.0925 -0.1018,3.72277 h 11.1497 v 6.97735 h -4.8855 c -0.2529,0.62401 -0.56,1.37541 -1.2444,2.92799 -0.9125,2.07043 -1.6593,3.85739 -1.6593,3.97081 0,0.33306 0.8524,0.77274 2.0221,1.04283 1.4671,0.33883 1.456,0.79155 -0.044,1.78749 -1.2611,0.83727 -1.7516,1.46403 -2.0015,2.5585 -0.2081,0.91154 0.1184,1.98379 0.7783,3.02049 0.9767,-0.58077 1.8995,-1.22875 2.7311,-1.99058 1.9666,-1.80276 3.3881,-3.95741 4.3031,-6.43888 v 10.60245 h 8.7752 c 1.1426,-0.8277 2.4596,-2.54046 2.7321,-3.55275 0.438,-1.62643 -0.2227,-3.02835 -1.9761,-4.19251 -1.5398,-1.02272 -1.5345,-1.46687 0.023,-1.81539 0.6409,-0.14343 1.3567,-0.4158 1.5906,-0.60513 l 0.4253,-0.34417 -0.5348,-1.32808 c -0.2941,-0.73059 -1.0563,-2.48773 -1.694,-3.90468 -0.6377,-1.41695 -1.1596,-2.63824 -1.1596,-2.71404 0,-0.11499 5.3015,1.00512 6.4859,1.37046 0.3476,0.10721 0.3599,-0.18625 0.2305,-5.4498 -0.075,-3.05989 -0.1472,-5.57857 -0.1602,-5.59707 -0.013,-0.0185 -1.4231,0.1879 -3.1342,0.45888 -4.0723,0.64487 -3.9449,0.6492 -4.0049,-0.13746 -0.078,-1.02928 -0.3946,-1.4031 -1.7343,-2.05207 -0.692,-0.3352 -1.3839,-0.7754 -1.5379,-0.97823 -0.3418,-0.45035 -0.3822,-1.50947 -0.058,-1.50947 1.2933,0 3.4007,1.49358 4.133,2.92902 0.2257,0.4424 0.4438,0.8046 0.4858,0.8046 0.2068,0 3.2416,-5.62864 3.1311,-5.8074 -0.071,-0.11424 -0.3254,-0.20773 -0.5659,-0.20773 -0.2405,0 -1.4584,-0.47433 -2.7063,-1.0542 -1.4666,-0.68158 -2.6637,-1.09484 -3.3869,-1.16944 -1.1784,-0.12163 -1.3257,-0.25014 -0.7927,-0.69247 0.7364,-0.61117 1.1737,-1.87803 1.0827,-3.13676 -0.104,-1.43758 -0.5496,-2.13637 -1.8144,-2.84272 -0.4314,-0.24094 -0.905,-0.39137 -1.3896,-0.45837 z m 6.3299,43.98698 c -1.6226,0.55338 -3.074,1.2661 -4.3486,2.14354 -1.8346,1.24968 -3.1633,2.79632 -4.0168,4.62194 2.1375,-0.13935 4.6988,-0.1453 6.7339,0.0269 l 1.7627,0.14883 -1.1405,0.14056 c -1.1773,0.14446 -5.3127,0.13551 -7.5086,0.0341 -0.3656,0.85893 -0.641,1.77091 -0.8015,2.75022 -0.1891,-0.42071 -0.3915,-0.83193 -0.6077,-1.233 -1.607,-3.04884 -3.8592,-5.41904 -6.7396,-7.12773 -5.6156,1.41068 -10.5852,2.96225 -13.7671,4.3527 l -1.9436,0.84956 0.1199,1.01235 c 0.051,0.42963 0.3035,1.31955 0.5979,2.30063 0.9685,-0.57429 2.1726,-0.86196 3.6137,-0.86196 3.8514,0 6.0144,2.05067 6.4896,6.15208 h -8.3272 c 0.8619,2.37833 1.9641,5.23492 3.1564,8.25272 h 19.388 v -3.45095 c 0,-0.32661 -0.014,-0.64285 -0.024,-0.96273 2.0578,2.68865 5.5807,4.48971 10.5921,5.38882 l 7.4275,1.35082 c 0.4425,0.0795 0.7803,0.18853 1.1617,0.28525 1.5725,-3.91482 3.0811,-7.71939 4.1594,-10.69547 l -6.5216,-1.14411 c -1.5756,-0.2751 -2.6383,-0.68747 -3.1884,-1.23766 -0.5252,-0.55018 -0.7881,-1.13799 -0.7881,-1.76319 0,-0.8753 0.4505,-1.53784 1.3509,-1.988 0.9002,-0.47516 2.0006,-0.71313 3.301,-0.71313 1.4756,0 2.763,0.37525 3.8634,1.12551 1.1254,0.72525 1.7386,1.72593 1.8386,3.00137 h 1.1007 c 0.6554,-1.91733 1.185,-3.56667 1.4051,-4.53306 l 0.3235,-1.42058 -1.5286,-0.7059 c -3.8095,-1.76015 -10.1902,-3.72693 -17.3845,-5.35833 l -0.5896,-0.13385 z m -5.8741,-42.72142 c 1.2031,0 1.7563,1.24151 0.924,2.07378 -0.8444,0.84439 -2.0743,0.27511 -2.0743,-0.96015 0,-0.79051 0.3342,-1.11363 1.1503,-1.11363 z m -6.0942,6.27352 c -0.5255,0.18538 -1.1024,0.41699 -1.8309,0.75551 -1.2542,0.58287 -2.4771,1.05937 -2.7177,1.05937 -0.2406,0 -0.4948,0.0939 -0.5658,0.20825 -0.1079,0.17446 2.9367,5.80688 3.1388,5.80688 0.037,0 0.2523,-0.3622 0.478,-0.8046 0.5631,-1.10377 2.1019,-2.40612 3.2091,-2.71611 0.5751,-0.16102 0.8975,-0.17971 1.077,-0.0832 -0.2683,-0.59421 -0.5577,-1.1758 -0.8977,-1.72703 -0.5522,-0.90369 -1.1874,-1.73255 -1.8908,-2.49907 z m -8.0791,18.9668 c 0,0.0247 -0.01,0.37457 -0.01,0.37724 0.021,0.0209 1.1339,-0.23313 1.8232,-0.37724 z m 14.8658,11.47113 c 1.1475,-0.001 2.7202,0.36281 2.7202,0.62942 0,0.0825 -0.4146,0.25428 -0.9214,0.38189 -1.4635,0.36852 -4.471,0.10429 -4.471,-0.39274 0,-0.28595 1.4314,-0.61657 2.6722,-0.61857 z m -16.0368,33.54989 c -0.4502,1.1754 -1.2256,2.08811 -2.3259,2.73834 -0.1277,0.0725 -0.2689,0.12607 -0.4026,0.19017 l 1.5007,3.64939 -0.7788,0.3483 c -0.9412,0.42139 -1.4283,1.28043 -1.4283,2.51819 0,1.14189 0.6941,2.23934 1.6045,2.5368 0.3612,0.11804 0.714,0.27253 0.785,0.34313 0.071,0.0707 0.063,1.34079 -0.018,2.82256 l -0.1462,2.69441 -2.2014,0.0832 c -3.0499,0.11551 -4.2294,0.78769 -4.4954,2.5616 -0.087,0.58218 0.013,1.15996 0.2548,1.67122 1.3472,0.049 2.5395,0.40836 3.5626,1.10587 1.1253,0.72525 1.738,1.72543 1.8381,3.00085 h 13.8048 c -0.175,-4.4265 -2.0132,-7.89025 -5.5144,-10.39109 -1.4641,-1.06389 -3.1596,-1.90086 -5.0808,-2.51665 2.449,-0.64293 4.5975,-1.62573 6.4311,-2.96519 2.0633,-1.50717 3.6286,-3.3275 4.7243,-5.44256 0.6983,1.42064 1.6578,2.70532 2.8505,3.86901 2.5172,-0.12109 6.1314,-0.13823 7.4631,0.0651 0.9556,0.14594 0.9713,0.15923 0.3829,0.31936 -0.9266,0.25212 -4.4756,0.30318 -7.1959,0.21807 0.3658,0.31885 0.735,0.63611 1.1425,0.93328 3.2113,2.30325 7.5164,3.58214 12.9047,3.84576 -0.02,-0.82899 -0.057,-1.84732 -0.011,-1.92082 0.068,-0.11032 0.3035,-0.2005 0.523,-0.2005 0.2197,0 0.6953,-0.2645 1.0568,-0.58756 0.552,-0.49318 0.6724,-0.77001 0.7524,-1.72858 0.1214,-1.46392 -0.3126,-2.35746 -1.3757,-2.83342 l -0.7746,-0.34675 1.0341,-2.50992 c -1.234,-0.11593 -2.3032,-0.44211 -3.1931,-0.9958 -1.1254,-0.72526 -1.8007,-1.75033 -2.0258,-3.07579 h -11.9181 z m -11.6856,26.70122 c -0.4604,0.70292 -0.7472,1.5325 -0.8252,2.50475 -0.2686,3.34659 1.7272,5.53749 5.5877,6.13296 l 1.5932,0.24547 0.7307,1.90892 c 0.3963,1.0354 0.7505,2.21743 1.1147,3.36466 0.5609,0.45992 0.8583,0.99417 0.8583,1.61178 0,0.25284 -0.053,0.48367 -0.1323,0.70332 0.9529,3.39624 1.7697,7.19589 2.4407,11.31404 1.097,-0.26055 2.1648,-0.56156 3.1683,-0.95137 3.0511,-1.2004 5.4521,-2.88802 7.2027,-5.06377 1.7504,-2.20075 2.6261,-4.80211 2.6261,-7.80314 0,-6.05206 -4.2518,-9.828 -12.7547,-11.32851 l -8.553,-1.50068 c -1.474,-0.25736 -2.4806,-0.64026 -3.0572,-1.13843 z m 33.3572,13.51752 c -2.2008,0 -4.039,0.72559 -5.5144,2.17609 -1.4756,1.4505 -2.2133,3.2632 -2.2133,5.43895 0,2.17573 0.7377,3.98896 2.2133,5.43946 1.4754,1.4505 3.3136,2.17609 5.5144,2.17609 2.2007,0 4.0388,-0.72559 5.5144,-2.17609 1.4754,-1.4505 2.2133,-3.26373 2.2133,-5.43946 0,-2.17575 -0.7379,-3.98845 -2.2133,-5.43895 -1.4756,-1.4505 -3.3137,-2.17609 -5.5144,-2.17609 z"
       clip-path="url(#clipPath95)" /></g></svg>
